<svg xmlns="http://www.w3.org/2000/svg" width="30.603" height="35.704" viewBox="0 0 30.603 35.704">
  <path id="_9034892_git_merge_icon" data-name="9034892_git_merge_icon" d="M90.494,47.267a5.1,5.1,0,0,0-4.409,2.541,19.779,19.779,0,0,1-9.26-2.5c-2.566-1.539-3.961-3.506-4.156-5.845a5.1,5.1,0,1,0-5.124.014V58.152a5.1,5.1,0,1,0,5.1,0V50.625a23.559,23.559,0,0,0,13.432,4.284,5.1,5.1,0,1,0,4.418-7.642Zm-20.4-12.749a2.55,2.55,0,1,1-2.55,2.55A2.55,2.55,0,0,1,70.094,34.517Zm0,30.6a2.55,2.55,0,1,1,2.55-2.55A2.55,2.55,0,0,1,70.094,65.116Zm20.4-10.2a2.55,2.55,0,1,1,2.55-2.55A2.55,2.55,0,0,1,90.494,54.916Z" transform="translate(95.597 67.668) rotate(180)" fill="#3fbbfe"/>
</svg>
