<svg xmlns="http://www.w3.org/2000/svg" width="30.264" height="36.952" viewBox="0 0 30.264 36.952">
  <g id="_9035688_git_pull_request_sharp_icon" data-name="9035688_git_pull_request_sharp_icon" transform="translate(-62.994 -9.93)">
    <path id="Path_54" data-name="Path 54" d="M73.135,37a5.031,5.031,0,1,0-7.625,4.308V57.8a5.031,5.031,0,1,0,5.031,0V41.4A5.035,5.035,0,0,0,73.135,37ZM68.1,34.486A2.515,2.515,0,1,1,65.589,37,2.515,2.515,0,0,1,68.1,34.486ZM68.025,64.67a2.515,2.515,0,1,1,2.515-2.515A2.515,2.515,0,0,1,68.025,64.67Z" transform="translate(0 -20.305)" fill="#3fbbfe"/>
    <path id="Path_55" data-name="Path 55" d="M218.029,37.495V21.412A7.239,7.239,0,0,0,210.8,14.18h-2.751V9.93L201.14,16.7l6.906,6.765v-4.25H210.8a2.2,2.2,0,0,1,2.2,2.2V37.495a5.031,5.031,0,1,0,5.031,0Zm-2.515,6.869a2.515,2.515,0,1,1,2.515-2.515A2.515,2.515,0,0,1,215.514,44.364Z" transform="translate(-127.287)" fill="#3fbbfe"/>
  </g>
</svg>
